<svg xmlns="http://www.w3.org/2000/svg" width="16.037" height="17.813" viewBox="0 0 16.037 17.813"><defs><style>.a{fill:#6e6e6e;}</style></defs><g transform="translate(11.382 9.617)"><path class="a" d="M400.118,273.32h-1.624a4.225,4.225,0,0,1,.256,1.452v6.138a1.809,1.809,0,0,1-.1.606h2.685a1.821,1.821,0,0,0,1.819-1.819v-3.346A3.035,3.035,0,0,0,400.118,273.32Z" transform="translate(-398.494 -273.32)"/></g><g transform="translate(0 8.038)"><path class="a" d="M143.573,234.815H139.86a3.035,3.035,0,0,0-3.031,3.031v6.138a.606.606,0,0,0,.606.606H146a.606.606,0,0,0,.606-.606v-6.138A3.035,3.035,0,0,0,143.573,234.815Z" transform="translate(-136.829 -234.815)"/></g><g transform="translate(1.242 0)"><path class="a" d="M170.76,38.84a3.645,3.645,0,1,0,3.646,3.646A3.65,3.65,0,0,0,170.76,38.84Z" transform="translate(-167.114 -38.84)"/></g><g transform="translate(9.212 2.398)"><path class="a" d="M348.333,121.689a2.726,2.726,0,1,0,2.726,2.726A2.729,2.729,0,0,0,348.333,121.689Z" transform="translate(-345.607 -121.689)"/></g></svg>