<svg xmlns="http://www.w3.org/2000/svg" width="16.12" height="19.321" viewBox="0 0 16.12 19.321"><defs><style>.a{fill:#137ef9;}</style></defs><path class="a" d="M91.685,9.307a4.5,4.5,0,0,0,3.29-1.363,4.5,4.5,0,0,0,1.363-3.29,4.5,4.5,0,0,0-1.363-3.29,4.652,4.652,0,0,0-6.581,0,4.5,4.5,0,0,0-1.363,3.29A4.5,4.5,0,0,0,88.4,7.944,4.5,4.5,0,0,0,91.685,9.307Zm0,0" transform="translate(-83.471 0)"/><path class="a" d="M16.08,252.84a11.494,11.494,0,0,0-.157-1.221,9.619,9.619,0,0,0-.3-1.227,6.063,6.063,0,0,0-.5-1.145,4.32,4.32,0,0,0-.761-.992,3.355,3.355,0,0,0-1.093-.687,3.778,3.778,0,0,0-1.4-.253,1.417,1.417,0,0,0-.756.321c-.227.148-.492.319-.788.508a4.512,4.512,0,0,1-1.019.449,3.958,3.958,0,0,1-2.494,0,4.5,4.5,0,0,1-1.019-.449c-.293-.187-.559-.358-.789-.508a1.414,1.414,0,0,0-.756-.321,3.773,3.773,0,0,0-1.4.253,3.352,3.352,0,0,0-1.093.687,4.321,4.321,0,0,0-.761.991,6.076,6.076,0,0,0-.5,1.145,9.641,9.641,0,0,0-.3,1.227,11.453,11.453,0,0,0-.157,1.221c-.026.37-.039.753-.039,1.141a3.208,3.208,0,0,0,.953,2.427,3.43,3.43,0,0,0,2.455.9h9.3a3.429,3.429,0,0,0,2.455-.9,3.207,3.207,0,0,0,.953-2.427c0-.389-.013-.773-.039-1.141Zm0,0" transform="translate(0 -237.983)"/></svg>