<svg xmlns="http://www.w3.org/2000/svg" width="16.797" height="13.919" viewBox="0 0 16.797 13.919"><defs><style>.a{fill:#202225;stroke:#202225;stroke-width:0.5px;}</style></defs><g transform="translate(0.25 -0.25)"><path class="a" d="M12.955.5H3.342A3.346,3.346,0,0,0,0,3.842V9a3.288,3.288,0,0,0,2.364,3.161l1.614,1.614a.477.477,0,0,0,.675,0L6.135,12.3h6.82A3.346,3.346,0,0,0,16.3,8.956V3.842A3.346,3.346,0,0,0,12.955.5Zm2.387,8.457a2.39,2.39,0,0,1-2.387,2.387H5.937a.478.478,0,0,0-.338.14L4.316,12.766,2.95,11.4a.477.477,0,0,0-.222-.126A2.335,2.335,0,0,1,.955,9V3.842A2.39,2.39,0,0,1,3.342,1.455h9.613a2.39,2.39,0,0,1,2.387,2.387Zm0,0"/><path class="a" d="M153.372,144.328h-7.059a.535.535,0,1,0,0,1.068h7.059a.535.535,0,1,0,0-1.068Zm0,0" transform="translate(-141.586 -140.143)"/><path class="a" d="M153.372,197.352h-7.059a.535.535,0,1,0,0,1.068h7.059a.535.535,0,1,0,0-1.068Zm0,0" transform="translate(-141.586 -190.279)"/></g></svg>