<svg xmlns="http://www.w3.org/2000/svg" width="46" height="46" viewBox="0 0 46 46"><defs><style>.a{fill:#f2f8ff;}.b{fill:#137ef9;}</style></defs><g transform="translate(1)"><rect class="a" width="46" height="46" rx="9" transform="translate(-1)"/><g transform="translate(11.706 11.436)"><g transform="translate(14.462 12.22)"><path class="b" d="M400.557,273.32h-2.063a5.368,5.368,0,0,1,.325,1.845v7.8a2.3,2.3,0,0,1-.133.77H402.1a2.314,2.314,0,0,0,2.311-2.311v-4.251A3.856,3.856,0,0,0,400.557,273.32Z" transform="translate(-398.494 -273.32)"/></g><g transform="translate(0 10.213)"><g transform="translate(0 0)"><path class="b" d="M145.4,234.815h-4.717a3.856,3.856,0,0,0-3.852,3.852v7.8a.77.77,0,0,0,.77.77h10.88a.77.77,0,0,0,.77-.77v-7.8A3.856,3.856,0,0,0,145.4,234.815Z" transform="translate(-136.829 -234.815)"/></g></g><g transform="translate(1.578 0)"><path class="b" d="M171.746,38.84a4.631,4.631,0,1,0,4.632,4.632A4.637,4.637,0,0,0,171.746,38.84Z" transform="translate(-167.114 -38.84)"/></g><g transform="translate(11.706 3.047)"><g transform="translate(0 0)"><path class="b" d="M349.071,121.689a3.464,3.464,0,1,0,3.464,3.464A3.468,3.468,0,0,0,349.071,121.689Z" transform="translate(-345.607 -121.689)"/></g></g></g></g></svg>