<svg xmlns="http://www.w3.org/2000/svg" width="28.924" height="28.924" viewBox="0 0 28.924 28.924"><defs><style>.a{fill:#137ef9;}</style></defs><path class="a" d="M57.75,11a5.5,5.5,0,1,0-5.5-5.5A5.506,5.506,0,0,0,57.75,11Zm0-8.37A2.87,2.87,0,1,1,54.879,5.5,2.874,2.874,0,0,1,57.75,2.629Z" transform="translate(-47.67)"/><path class="a" d="M28.539,134.358l-3.973-3.973a1.315,1.315,0,0,0-1.859,0l-5.158,5.158A10.081,10.081,0,0,0,0,142.315a1.315,1.315,0,0,0,1.315,1.315H11.394v2.586a1.315,1.315,0,0,0,1.315,1.315h3.973a1.315,1.315,0,0,0,.93-.385l10.927-10.927A1.315,1.315,0,0,0,28.539,134.358Zm-18.459.506a7.427,7.427,0,0,1,5.605,2.542L12.091,141H2.746A7.463,7.463,0,0,1,10.079,134.864ZM16.138,144.9H14.024v-2.114l4.315-4.315.023-.023,5.274-5.274,2.114,2.114Z" transform="translate(0 -118.606)"/></svg>